<?xml version="1.0" standalone="no"?>
<!DOCTYPE svg PUBLIC "-//W3C//DTD SVG 20010904//EN"
 "http://www.w3.org/TR/2001/REC-SVG-20010904/DTD/svg10.dtd">
<svg version="1.0" xmlns="http://www.w3.org/2000/svg"
 width="200.000000pt" height="200.000000pt" viewBox="0 0 200.000000 200.000000"
 preserveAspectRatio="xMidYMid meet">

<g transform="translate(0.000000,200.000000) scale(0.100000,-0.100000)"
fill="#000000" stroke="none">
<path d="M1390 1993 c0 -5 11 -44 25 -88 30 -98 31 -128 4 -201 l-22 -57 -15
29 c-8 16 -22 35 -31 42 -13 11 -13 12 -1 6 8 -4 -1 10 -20 30 -43 46 -98 79
-170 101 -46 14 -60 15 -85 4 -16 -7 -32 -13 -35 -14 -32 -8 -49 -18 -45 -26
4 -5 -13 -9 -37 -9 -49 0 -133 -34 -123 -50 4 -6 3 -10 -2 -9 -21 4 -43 -2
-43 -11 0 -5 -16 -24 -35 -42 -24 -23 -41 -52 -54 -97 -22 -71 -14 -71 13 -1
9 25 30 61 46 80 29 33 30 34 20 8 -7 -20 -6 -28 2 -28 6 0 3 -9 -7 -20 -10
-11 -14 -20 -9 -20 5 0 17 12 26 28 47 78 137 139 223 148 36 4 44 2 49 -13 6
-18 46 -27 46 -10 0 5 12 -1 26 -12 14 -11 32 -17 40 -14 8 3 21 0 29 -7 9 -7
18 -10 21 -7 6 6 12 2 55 -35 38 -34 56 -65 79 -141 11 -37 25 -67 31 -67 6 0
8 8 6 18 -3 9 -8 31 -11 47 l-5 30 14 -30 c15 -31 18 -128 3 -119 -4 3 -8 -4
-8 -15 0 -12 -5 -21 -11 -21 -5 0 -8 4 -5 8 2 4 -4 9 -15 9 -11 1 -29 13 -39
26 -25 32 -141 54 -185 36 -17 -7 -36 -11 -42 -10 -7 1 -13 -2 -13 -8 0 -5 6
-12 13 -14 9 -4 9 -6 -1 -6 -7 -1 -25 13 -40 29 -21 24 -42 34 -97 45 -93 20
-100 19 -131 -10 -15 -14 -35 -25 -44 -25 -11 0 -24 -15 -34 -40 -20 -51 -20
-52 7 -50 52 5 67 0 61 -17 -5 -14 -4 -15 4 -4 7 10 23 12 61 8 40 -5 53 -3
58 8 3 8 9 15 14 15 5 0 4 -9 -3 -20 -7 -11 -22 -20 -33 -20 -11 0 -27 -5 -35
-10 -11 -7 -5 -10 23 -10 21 0 49 7 62 16 20 13 28 14 40 4 13 -10 19 -9 35 5
21 19 28 41 9 29 -7 -4 -10 -1 -7 7 6 19 37 24 52 9 8 -9 8 -14 0 -17 -9 -3
-8 -13 3 -35 17 -33 34 -23 27 16 -4 20 -4 20 7 -1 7 -13 16 -23 21 -23 4 0 8
-6 8 -12 0 -7 13 -22 28 -33 21 -16 41 -20 95 -19 56 2 67 -1 63 -13 -3 -8 -6
-19 -6 -24 0 -5 -6 -9 -13 -9 -9 0 -12 -9 -9 -29 5 -33 -12 -48 -33 -31 -19
16 -19 11 4 -36 13 -27 16 -43 9 -51 -5 -7 -7 -21 -3 -32 4 -13 0 -23 -11 -29
-10 -6 -15 -16 -11 -26 8 -19 -4 -21 -22 -3 -10 10 -11 8 -5 -7 6 -17 -8 -35
-28 -36 -12 0 -10 58 2 65 18 11 11 32 -17 51 -15 9 -33 17 -40 17 -7 0 -13 5
-13 10 0 5 -6 7 -14 4 -8 -3 -20 0 -26 8 -18 22 -90 24 -132 4 -31 -16 -37
-16 -42 -4 -3 10 -19 15 -45 15 -31 0 -41 -4 -46 -21 -8 -26 21 -51 50 -43 55
16 103 22 130 16 46 -8 106 -38 97 -47 -4 -4 0 -6 10 -2 17 6 48 -21 48 -41 0
-7 5 -12 11 -12 5 0 7 -4 4 -10 -3 -5 -13 -10 -21 -10 -8 0 -28 -10 -45 -22
-23 -17 -34 -20 -47 -12 -29 18 -88 15 -143 -5 -54 -21 -69 -20 -69 4 0 20
-17 27 -37 16 -43 -25 -44 -26 -32 -60 9 -27 8 -35 -6 -51 -15 -16 -15 -22 -5
-35 7 -8 9 -15 6 -15 -4 0 -1 -6 6 -14 7 -8 17 -11 22 -8 5 3 6 0 2 -6 -8 -14
113 -107 158 -122 31 -10 40 -7 136 50 57 34 121 75 142 91 l38 31 0 -38 c0
-22 -19 -87 -45 -151 -25 -61 -45 -117 -45 -123 0 -5 -5 -10 -11 -10 -5 0 -8
-4 -5 -9 4 -5 -12 -99 -35 -208 -22 -109 -43 -213 -46 -230 l-5 -33 446 0 446
0 0 275 0 275 -29 -6 c-37 -8 -98 12 -111 36 -22 41 -13 58 36 66 29 4 50 2
57 -5 18 -18 47 -13 47 8 0 20 -19 31 -54 31 -34 0 -76 37 -76 67 0 50 31 95
82 117 l48 21 0 131 0 131 -82 -13 c-130 -21 -118 -32 -118 106 0 89 -3 120
-12 120 -7 0 -85 -12 -173 -25 -88 -14 -163 -25 -167 -25 -4 0 -4 10 1 22 7
20 27 25 247 59 131 21 254 41 272 44 l32 6 0 154 0 154 -42 -19 c-25 -11 -65
-20 -95 -20 -44 0 -55 4 -72 26 -31 39 -26 52 22 62 33 7 46 5 60 -6 14 -12
22 -13 42 -4 45 21 25 42 -39 42 -39 0 -86 33 -86 61 0 25 16 57 43 87 l20 22
-231 0 c-128 0 -232 -3 -232 -7z m367 -67 c-3 -7 -37 -18 -76 -25 -56 -10 -71
-16 -71 -30 0 -16 6 -17 56 -8 30 5 57 8 58 6 2 -2 1 -18 -1 -36 -5 -29 -8
-31 -61 -40 -50 -7 -57 -11 -60 -32 -3 -17 0 -22 11 -18 7 3 40 8 72 12 l58 8
-7 -33 c-3 -19 -8 -35 -10 -37 -5 -5 -229 -43 -233 -39 -3 3 35 288 39 291 2
2 53 11 113 21 l110 19 3 -23 c2 -13 1 -29 -1 -36z m-807 -472 c8 -8 -2 -11
-32 -12 -24 0 -67 -2 -95 -5 -51 -3 -67 6 -45 27 11 11 159 3 172 -10z m70
-81 c-10 -16 -11 -15 -6 7 3 14 6 32 7 40 1 8 4 5 6 -7 2 -12 -1 -30 -7 -40z
m250 43 c17 -3 26 -13 27 -26 1 -11 1 -20 0 -20 -15 0 -94 50 -85 53 7 2 18 3
23 1 6 -1 21 -5 35 -8z m90 -26 c0 -5 -4 -10 -10 -10 -5 0 -10 5 -10 10 0 6 5
10 10 10 6 0 10 -4 10 -10z m47 -62 c-3 -7 -5 -2 -5 12 0 14 2 19 5 13 2 -7 2
-19 0 -25z m-172 -18 c4 0 3 5 -1 12 -4 7 -3 8 4 4 7 -4 12 -11 12 -17 0 -15
-24 -10 -50 12 l-25 21 27 -16 c15 -9 30 -16 33 -16z m146 -73 c-10 -9 -11 -8
-5 6 3 10 9 15 12 12 3 -3 0 -11 -7 -18z m9 -199 c0 -36 -9 -33 -16 6 -2 14 0
26 6 26 5 0 10 -14 10 -32z"/>
<path d="M1895 1939 c-11 -16 1 -22 55 -29 45 -6 50 -4 50 13 0 14 -5 18 -20
14 -11 -3 -23 -1 -26 4 -7 13 -51 11 -59 -2z"/>
<path d="M720 1480 c0 -5 5 -10 10 -10 6 0 10 5 10 10 0 6 -4 10 -10 10 -5 0
-10 -4 -10 -10z"/>
<path d="M670 1306 c0 -41 15 -49 22 -11 3 14 -1 30 -8 36 -11 9 -14 5 -14
-25z"/>
<path d="M982 1310 c-7 -11 -8 -20 -3 -20 9 0 24 30 18 36 -1 2 -8 -6 -15 -16z"/>
<path d="M953 1273 c-15 -5 -18 -33 -4 -33 8 0 25 30 19 35 -2 1 -9 0 -15 -2z"/>
<path d="M1099 1276 c-2 -3 -29 -7 -58 -10 -54 -5 -71 -16 -71 -48 0 -20 19
-35 29 -22 3 5 13 14 21 21 14 10 16 7 16 -24 0 -20 5 -38 12 -41 7 -2 12 3
12 12 0 8 6 14 13 12 51 -16 66 -16 72 4 3 11 12 20 20 20 17 0 10 28 -16 60
-17 21 -19 22 -10 3 19 -37 12 -48 -14 -23 -13 12 -22 27 -19 31 5 9 1 12 -7
5z"/>
<path d="M533 1182 c-57 -8 -103 -19 -103 -25 0 -5 27 -102 60 -215 34 -112
59 -205 58 -207 -4 -2 -257 -72 -291 -79 -15 -4 -62 -11 -103 -16 -42 -5 -93
-15 -115 -21 l-39 -12 0 -304 0 -303 421 0 421 0 -7 78 c-3 42 -12 117 -20
167 -28 186 -29 212 -6 225 12 6 21 17 21 25 0 21 10 19 39 -7 l24 -23 -16 25
c-9 13 -17 33 -17 44 0 17 -5 15 -34 -13 -19 -18 -36 -29 -39 -24 -3 4 -10 37
-17 73 -6 36 -23 100 -37 144 -21 63 -24 85 -17 115 10 39 -16 226 -37 268 -7
12 -9 34 -6 49 6 36 -1 54 -22 53 -9 -1 -62 -8 -118 -17z m163 -413 c-5 -34
-13 -46 -22 -36 -7 6 14 67 23 67 2 0 2 -14 -1 -31z"/>
<path d="M983 1055 c-16 -12 -14 -14 19 -28 30 -13 128 -21 128 -11 0 2 -11
11 -25 20 -37 24 -101 34 -122 19z"/>
<path d="M1984 799 c-3 -6 -1 -16 5 -22 8 -8 11 -5 11 11 0 24 -5 28 -16 11z"/>
<path d="M1030 606 c0 -2 7 -7 16 -10 8 -3 12 -2 9 4 -6 10 -25 14 -25 6z"/>
<path d="M1137 522 c3 -12 11 -23 19 -26 20 -8 17 8 -5 28 -19 17 -19 17 -14
-2z"/>
<path d="M1099 463 c-13 -16 -12 -17 4 -4 16 13 21 21 13 21 -2 0 -10 -8 -17
-17z"/>
<path d="M968 463 c12 -2 32 -2 45 0 12 2 2 4 -23 4 -25 0 -35 -2 -22 -4z"/>
<path d="M1047 449 c7 -7 15 -10 18 -7 3 3 -2 9 -12 12 -14 6 -15 5 -6 -5z"/>
<path d="M1065 419 c-4 -6 -5 -12 -2 -15 2 -3 7 2 10 11 7 17 1 20 -8 4z"/>
<path d="M1090 86 c0 -13 -3 -38 -6 -55 -4 -19 -2 -31 4 -31 6 0 11 8 10 17 0
10 2 35 5 56 4 21 2 37 -3 37 -6 0 -10 -11 -10 -24z"/>
</g>
</svg>
