<?xml version="1.0" standalone="no"?>
<!DOCTYPE svg PUBLIC "-//W3C//DTD SVG 20010904//EN"
 "http://www.w3.org/TR/2001/REC-SVG-20010904/DTD/svg10.dtd">
<svg version="1.0" xmlns="http://www.w3.org/2000/svg"
 width="150.000000pt" height="225.000000pt" viewBox="0 0 150.000000 225.000000"
 preserveAspectRatio="xMidYMid meet">

<g transform="translate(0.000000,225.000000) scale(0.100000,-0.100000)"
fill="#000000" stroke="none">
<path d="M10 1555 l0 -695 38 16 c20 8 57 24 82 34 25 10 102 46 172 79 l128
60 29 63 30 62 -16 66 c-9 36 -23 73 -31 82 -17 20 -22 56 -11 78 4 8 1 50 -7
93 -12 73 -11 107 5 107 4 0 5 41 3 90 -4 91 10 177 32 192 6 4 12 12 12 18 3
23 5 24 14 10 6 -9 5 -17 -2 -21 -8 -5 -6 -12 4 -23 14 -14 17 -13 28 14 25
59 156 167 178 146 3 -3 1 -6 -4 -6 -10 0 32 -27 59 -36 9 -3 17 -10 17 -14 0
-8 106 -3 121 6 5 3 9 0 9 -5 0 -6 -8 -12 -17 -12 -18 -1 38 -16 87 -23 56 -8
79 -24 91 -66 7 -22 22 -51 34 -63 25 -25 51 -145 43 -198 -3 -21 0 -43 10
-57 13 -20 13 -22 -2 -16 -12 5 -16 0 -16 -17 0 -20 2 -21 11 -9 7 11 7 3 2
-25 -4 -22 -7 -71 -5 -109 1 -42 -2 -72 -8 -76 -15 -9 -40 -132 -30 -145 4 -5
13 -26 19 -45 7 -24 21 -40 39 -47 15 -6 61 -26 102 -43 41 -18 112 -45 158
-60 l82 -29 0 660 0 659 -745 0 -745 0 0 -695z"/>
<path d="M442 1760 c0 -14 2 -19 5 -12 2 6 2 18 0 25 -3 6 -5 1 -5 -13z"/>
<path d="M573 1731 c-13 -11 -23 -25 -23 -33 0 -10 2 -10 8 -1 9 14 67 20 99
9 12 -4 24 -2 28 4 4 6 16 8 28 4 20 -5 20 -4 7 9 -8 8 -40 18 -70 21 -45 5
-59 2 -77 -13z"/>
<path d="M902 1733 c-23 -9 8 -33 43 -33 64 0 94 -11 104 -39 l9 -26 1 28 c1
44 -41 77 -98 76 -25 0 -52 -3 -59 -6z"/>
<path d="M603 1646 c-22 -10 -38 -34 -29 -43 2 -3 14 5 25 16 25 25 31 26 31
7 0 -8 9 -17 19 -21 13 -4 18 -12 14 -22 -5 -12 -1 -14 18 -8 30 9 45 24 53
51 5 18 1 22 -25 28 -43 8 -80 6 -106 -8z m88 -19 c-13 -13 -26 -3 -16 12 3 6
11 8 17 5 6 -4 6 -10 -1 -17z"/>
<path d="M860 1640 c0 -5 5 -10 11 -10 6 0 9 -6 7 -12 -5 -15 19 -42 46 -52
14 -5 17 -2 12 9 -3 8 -1 15 5 15 6 0 19 10 29 22 l17 22 7 -21 c8 -25 36 -39
36 -18 0 27 -61 55 -117 55 -29 0 -53 -4 -53 -10z m57 -22 c-3 -8 -6 -5 -6 6
-1 11 2 17 5 13 3 -3 4 -12 1 -19z"/>
<path d="M421 1563 c0 -4 4 -17 9 -28 8 -19 9 -19 9 2 1 12 -3 25 -9 28 -5 3
-10 3 -9 -2z"/>
<path d="M687 1493 c-11 -10 -8 -20 7 -26 10 -4 12 0 9 14 -6 21 -7 22 -16 12z"/>
<path d="M743 1484 c-7 -19 2 -28 22 -21 19 8 19 23 0 31 -9 3 -18 -1 -22 -10z"/>
<path d="M840 1476 c0 -9 7 -16 16 -16 17 0 14 22 -4 28 -7 2 -12 -3 -12 -12z"/>
<path d="M911 1474 c0 -11 3 -14 6 -6 3 7 2 16 -1 19 -3 4 -6 -2 -5 -13z"/>
<path d="M678 1343 c-43 -7 -33 -23 10 -17 20 2 45 7 54 10 10 3 27 0 39 -6
17 -10 23 -9 30 1 6 10 13 11 31 2 21 -10 86 -33 94 -33 2 0 1 7 -2 15 -4 8
-14 15 -24 15 -11 0 -22 5 -25 10 -6 10 -150 12 -207 3z"/>
<path d="M1089 1125 c-4 -5 -9 -22 -13 -37 -3 -16 -34 -51 -72 -85 -62 -55
-106 -113 -85 -113 11 0 3 -39 -12 -57 -5 -7 -6 -13 -1 -13 35 0 200 257 192
298 -2 9 -6 13 -9 7z"/>
<path d="M480 1085 c0 -17 19 -69 44 -120 24 -49 50 -106 57 -125 8 -22 53
-74 118 -137 l105 -102 28 67 c15 37 27 74 27 82 0 10 -2 11 -6 3 -5 -15 -43
1 -43 18 0 23 -39 48 -95 63 -52 13 -67 23 -112 73 -47 52 -82 110 -112 183
l-10 25 -1 -30z"/>
<path d="M1130 1057 c0 -4 7 -28 16 -54 9 -26 17 -67 18 -90 1 -55 16 -56 16
-2 0 53 -19 125 -36 140 -8 6 -14 9 -14 6z"/>
<path d="M411 951 c-1 -29 8 -59 26 -92 14 -27 28 -47 30 -45 3 2 -3 19 -13
38 -10 18 -23 58 -30 88 l-12 55 -1 -44z"/>
<path d="M1003 872 c-26 -39 -73 -140 -73 -157 0 -3 9 4 20 15 11 11 20 26 20
34 0 7 20 40 45 72 25 31 45 63 45 71 0 27 -26 11 -57 -35z"/>
<path d="M485 840 c-3 -5 23 -38 59 -74 81 -80 98 -63 23 24 -51 59 -70 70
-82 50z"/>
<path d="M510 757 c24 -26 46 -47 47 -47 11 0 -35 54 -61 72 -25 17 -23 13 14
-25z"/>
<path d="M916 685 c-9 -26 -7 -32 5 -12 6 10 9 21 6 23 -2 3 -7 -2 -11 -11z"/>
<path d="M680 659 c20 -19 50 -50 69 -69 l33 -35 -15 30 c-17 34 -48 64 -92
90 -29 17 -29 17 5 -16z"/>
<path d="M728 290 c-4 -14 -7 -47 -7 -75 l1 -50 9 45 c5 25 8 59 7 75 -3 30
-3 30 -10 5z"/>
</g>
</svg>
